M48
; DRILL file {KiCad 9.0.2} date 2026-03-26T15:15:23+0100
; FORMAT={-:-/ absolute / metric / decimal}
; #@! TF.CreationDate,2026-03-26T15:15:23+01:00
; #@! TF.GenerationSoftware,Kicad,Pcbnew,9.0.2
; #@! TF.FileFunction,Plated,1,2,PTH
FMAT,2
METRIC
; #@! TA.AperFunction,Plated,PTH,ViaDrill
T1C0.800
; #@! TA.AperFunction,Plated,PTH,ComponentDrill
T2C0.800
; #@! TA.AperFunction,Plated,PTH,ComponentDrill
T3C1.000
%
G90
G05
T1
X128.956Y-52.044
X134.25Y-93.693
X134.605Y-52.355
X137.75Y-66.0
X138.465Y-81.535
X148.25Y-71.75
T2
X102.75Y-83.0
X105.29Y-83.0
X107.83Y-83.0
X110.37Y-83.0
X115.98Y-79.0
X117.75Y-61.42
X117.75Y-66.5
X118.6Y-75.5
X121.5Y-75.5
X123.5Y-79.0
X125.0Y-62.1
X125.0Y-65.0
X129.69Y-54.88
X129.69Y-62.5
X130.38Y-70.38
X130.38Y-78.0
X131.5Y-87.75
X132.23Y-54.88
X132.23Y-62.5
X132.6Y-82.25
X132.92Y-70.38
X132.92Y-78.0
X134.77Y-54.88
X134.77Y-62.5
X135.46Y-70.38
X135.46Y-78.0
X135.5Y-82.25
X136.58Y-87.75
X137.31Y-54.88
X137.31Y-62.5
X138.0Y-78.0
X140.35Y-92.25
X143.25Y-92.25
X144.63Y-67.75
X147.17Y-67.75
X148.0Y-82.21
X148.0Y-87.29
X149.71Y-67.75
X152.25Y-67.75
X153.676Y-78.6
X153.676Y-81.5
X158.0Y-75.23
X158.0Y-77.77
X163.25Y-54.71
X163.25Y-57.25
X163.25Y-59.79
X163.25Y-62.33
X163.25Y-64.87
X165.75Y-78.75
X165.75Y-83.83
T3
X118.796Y-49.2
X121.336Y-49.2
X123.876Y-49.2
X126.416Y-49.2
X127.94Y-97.46
X128.956Y-49.2
X130.48Y-97.46
X131.496Y-49.2
X133.02Y-97.46
X134.036Y-49.2
X135.56Y-97.46
X136.576Y-49.2
X138.0Y-70.38
X138.1Y-97.46
X139.116Y-49.2
X140.64Y-97.46
X141.656Y-49.2
X143.18Y-97.46
X145.72Y-49.2
X145.72Y-97.46
X148.26Y-49.2
X150.8Y-49.2
X150.8Y-97.46
X153.34Y-49.2
X153.34Y-97.46
X155.88Y-49.2
X155.88Y-97.46
X158.42Y-49.2
X158.42Y-97.46
X160.96Y-49.2
X160.96Y-97.46
X163.5Y-49.2
X163.5Y-97.46
M30
